<svg id="Layer_1" data-name="Layer 1" xmlns="http://www.w3.org/2000/svg" viewBox="0 0 115 115"><defs><style>.cls-1{fill:#fff;}.cls-2{fill:#fbe3e2;}</style></defs><title>free-treats</title><path class="cls-1" d="M35.64,55.75l-2.68-9,6.33-1.89.51,1.68L35.37,47.9l.56,1.88,4.33-1.29.5,1.67-4.33,1.3,1.11,3.72Z"/><path class="cls-1" d="M51,51.14l-2.71-2.65-1.4.41,1,3.18-1.9.57L43.3,43.7l4.19-1.25a2.92,2.92,0,0,1,3.88,2,2.71,2.71,0,0,1-1.18,3.25l3.05,2.8ZM49.41,45a1.26,1.26,0,0,0-1.69-.8l-2,.6.72,2.42,2-.61A1.26,1.26,0,0,0,49.41,45Z"/><path class="cls-1" d="M57.28,49.27l-2.67-9,6.33-1.89.5,1.68L57,41.43l.56,1.88L61.91,42l.5,1.68L58.08,45l.61,2,4.43-1.33.5,1.68Z"/><path class="cls-1" d="M67.79,46.13l-2.68-9,6.34-1.89L72,37l-4.43,1.32.56,1.88,4.34-1.3.5,1.68-4.34,1.3.61,2,4.43-1.33.5,1.68Z"/><path class="cls-1" d="M29.49,78.46l-2.17-7.28L24.7,72l-.5-1.67,7.14-2.14.5,1.68-2.6.78,2.17,7.27Z"/><path class="cls-1" d="M43,74.43l-2.71-2.66-1.4.42,1,3.18-1.9.57-2.68-9,4.19-1.26a2.93,2.93,0,0,1,3.88,2A2.69,2.69,0,0,1,42.13,71l3,2.81Zm-1.63-6.14a1.27,1.27,0,0,0-1.69-.8l-2,.6.72,2.42,2-.6A1.27,1.27,0,0,0,41.35,68.29Z"/><path class="cls-1" d="M49.22,72.56l-2.67-9,6.33-1.9.5,1.68L49,64.71l.56,1.88,4.33-1.29.5,1.67L50,68.27l.61,2L55.06,69l.5,1.67Z"/><path class="cls-1" d="M65.91,67.57l-1-1.35-3.84,1.15L61,69.05l-2.16.65.77-10L62,59l6.12,7.92Zm-4.58-6.31-.25,4.27,2.79-.83Z"/><path class="cls-1" d="M72.79,65.51l-2.17-7.27L68,59l-.5-1.68,7.14-2.13.5,1.68-2.6.77,2.17,7.28Z"/><path class="cls-1" d="M80.13,61.94l.6-1.8a4.09,4.09,0,0,0,3.21.37c1.06-.31,1.41-.93,1.26-1.46-.47-1.55-5.3,1.08-6.3-2.29-.45-1.49.47-3.11,2.58-3.74a5.19,5.19,0,0,1,3.86.2L84.71,55a4.06,4.06,0,0,0-2.9-.2c-.81.24-1.16.73-1,1.26.42,1.41,5.28-1.08,6.28,2.26.49,1.64-.32,3.23-2.73,3.95A5.34,5.34,0,0,1,80.13,61.94Z"/><path class="cls-1" d="M91.33,59a1.13,1.13,0,1,1,2.16-.65,1.15,1.15,0,0,1-.77,1.4A1.13,1.13,0,0,1,91.33,59Zm-.27-2.09L89,50.92,91,50.31l1.53,6.1Z"/><path class="cls-2" d="M57.5,107.67A50.17,50.17,0,1,1,107.67,57.5,50.23,50.23,0,0,1,57.5,107.67Zm0-98.34A48.17,48.17,0,1,0,105.67,57.5,48.23,48.23,0,0,0,57.5,9.33Z"/><path class="cls-2" d="M57.5,114A56.52,56.52,0,1,1,114,57.5,56.58,56.58,0,0,1,57.5,114Zm0-112A55.52,55.52,0,1,0,113,57.5,55.59,55.59,0,0,0,57.5,2Z"/></svg>